<?xml version="1.0" encoding="UTF-8"?>
<svg version="1.1" xmlns="http://www.w3.org/2000/svg" width="630" height="287">
<path d="M0 0 C5.48360968 1.26544839 10.71550865 3.0938544 16 5 C16.88236328 5.31114746 17.76472656 5.62229492 18.67382812 5.94287109 C33.21599332 11.0925966 47.25469808 17.07251801 61.19287109 23.67431641 C63.86784393 24.9375885 66.55110189 26.18091585 69.23828125 27.41796875 C87.10446953 35.6813445 103.60037406 45.68926564 119.5390625 57.2421875 C120.20373535 57.72284668 120.8684082 58.20350586 121.55322266 58.69873047 C122.03065918 59.12814941 122.5080957 59.55756836 123 60 C123 60.66 123 61.32 123 62 C123.99 62.33 124.98 62.66 126 63 C126 63.66 126 64.32 126 65 C126.66 65 127.32 65 128 65 C131 68.46153846 131 68.46153846 131 71 C126.42772885 69.29178378 122.15392761 67.1070214 117.81640625 64.88671875 C116.16575723 64.04821509 114.5147833 63.21035081 112.86352539 62.37304688 C111.99938019 61.93468506 111.13523499 61.49632324 110.24490356 61.04467773 C76.859905 44.15334292 42.79970051 29.92415154 7 19 C7.27561768 19.6899707 7.55123535 20.37994141 7.83520508 21.09082031 C24.43815754 62.96955177 34.81820531 105.78720279 43 150 C47.62253951 143.55984757 51.91585203 137.01738503 55.9375 130.1875 C56.98379976 128.42674138 58.03067478 126.66632447 59.078125 124.90625 C59.57892578 124.06320313 60.07972656 123.22015625 60.59570312 122.3515625 C63.03432901 118.26796644 65.54130954 114.22790727 68.05078125 110.1875 C69.53346132 107.76291695 70.98522906 105.32886978 72.41796875 102.875 C72.82700439 102.17866455 73.23604004 101.4823291 73.6574707 100.76489258 C74.45520085 99.40377651 75.24694376 98.03912959 76.03198242 96.6706543 C76.96665266 95.08034811 77.97678001 93.53482998 79 92 C79.66 92 80.32 92 81 92 C80.02405981 119.32632522 58.84914427 149.72628359 44 172 C41.27124618 173.94910987 40.15155524 174.01748714 36.75 173.625 C35.8425 173.41875 34.935 173.2125 34 173 C30.53289321 164.49341291 28.43273693 155.8619382 26.42459106 146.93267822 C22.01131721 127.39801712 16.75045731 108.17844751 11 89 C10.60869437 87.6871833 10.21741776 86.37435795 9.82617188 85.06152344 C4.08170525 65.85104306 -2.40947922 46.91836498 -9.08666992 28.01367188 C-9.40463531 27.11251648 -9.72260071 26.21136108 -10.05020142 25.28289795 C-10.64993906 23.58533109 -11.25146511 21.88839462 -11.85507202 20.19219971 C-12.12340851 19.43364685 -12.391745 18.67509399 -12.66821289 17.89355469 C-12.90230362 17.23506531 -13.13639435 16.57657593 -13.37757874 15.89813232 C-14.82233078 11.49222476 -15.34010553 7.67645107 -15 3 C-11.47693332 -1.97849751 -5.41387487 -0.61616476 0 0 Z " fill="#F38533" transform="translate(270,0)"/>
<path d="M0 0 C5.30643985 0.05035767 8.29927281 0.60026485 12.3125 4.3125 C15.7089977 8.12671214 17.83180936 12.1480577 19.8125 16.8125 C20.11365723 17.50867432 20.41481445 18.20484863 20.72509766 18.92211914 C23.08373737 24.49391382 24.94201309 30.10838334 26.5859375 35.93359375 C27.08820713 38.24478162 27.08820713 38.24478162 28.3125 39.3125 C28.71976318 38.16418701 28.71976318 38.16418701 29.13525391 36.99267578 C30.1667632 34.10069565 31.20794212 31.21242059 32.25537109 28.32617188 C32.92103496 26.48308824 33.57589297 24.63611318 34.23046875 22.7890625 C37.13566531 14.81061225 40.19469559 6.43030441 46.3125 0.3125 C51.30703769 -0.54088324 55.26139148 -0.24172086 59.75 2.125 C66.42147456 8.86866155 66.07368045 21.40720613 66.82055664 30.36254883 C66.99837901 32.48069147 67.19424324 34.59658116 67.39257812 36.71289062 C68.25086254 46.26447093 68.46456568 55.72592531 68.3125 65.3125 C57.24054511 65.96759066 57.24054511 65.96759066 53.125 63.0625 C50.61651009 59.2565153 50.20122096 56.14198096 50.03125 51.64453125 C49.97517578 50.30358398 49.97517578 50.30358398 49.91796875 48.93554688 C49.86576172 47.54432617 49.86576172 47.54432617 49.8125 46.125 C49.55757495 39.47334452 49.12259242 32.92150402 48.3125 26.3125 C48.00022461 27.2096875 47.68794922 28.106875 47.36621094 29.03125 C46.19371572 32.39529631 45.01413415 35.75682296 43.83251953 39.11767578 C43.32443186 40.56590285 42.81820626 42.01478473 42.31396484 43.46435547 C39.70491499 50.96085318 37.13306171 58.32633002 33.3125 65.3125 C26.17899874 65.91703401 26.17899874 65.91703401 22.625 63.4375 C16.89419396 55.69316751 13.91204509 46.78280591 11 37.6875 C10.64099609 36.58792969 10.28199219 35.48835938 9.91210938 34.35546875 C9.03858459 31.67665942 8.17220963 28.99576816 7.3125 26.3125 C6.06724107 39.30343272 4.96942164 52.2777916 4.3125 65.3125 C-5.62876706 66.09596238 -5.62876706 66.09596238 -9.8125 63 C-15.51919824 54.82039919 -12.367712 42.55834981 -11.375 33.25 C-11.24109863 31.97608398 -11.10719727 30.70216797 -10.96923828 29.38964844 C-7.79192554 0.18209912 -7.79192554 0.18209912 0 0 Z " fill="#3A4555" transform="translate(156.6875,219.6875)"/>
<path d="M0 0 C3.51379588 3.51379588 4.5434568 7.04022882 4.74609375 11.87109375 C4.5473564 17.24603561 2.83092786 20.78613101 -0.81640625 24.74609375 C-1.41453125 25.28234375 -2.01265625 25.81859375 -2.62890625 26.37109375 C-1.68015625 27.11359375 -0.73140625 27.85609375 0.24609375 28.62109375 C2.80016832 30.61993471 4.20941587 32.32100111 5.37109375 35.37109375 C6.08620145 41.51916253 6.08751551 47.21605711 2.37109375 52.37109375 C-4.6624913 59.9256851 -12.21282656 61.81757148 -22.31640625 62.3671875 C-30.69173975 62.37706407 -38.15504098 60.95938311 -44.62890625 55.37109375 C-48.17623351 50.82323829 -49.75747404 47.35542022 -49.74243164 41.62426758 C-49.74235611 40.66349808 -49.74228058 39.70272858 -49.74220276 38.71284485 C-49.73704147 37.6783873 -49.73188019 36.64392975 -49.7265625 35.578125 C-49.72514755 34.51695969 -49.7237326 33.45579437 -49.72227478 32.36247253 C-49.71667231 28.9694844 -49.70411939 25.57656198 -49.69140625 22.18359375 C-49.68639157 19.88476658 -49.68182861 17.58593837 -49.67773438 15.28710938 C-49.66670208 9.64841503 -49.64996155 4.00975909 -49.62890625 -1.62890625 C-47.69992776 -2.28204566 -45.77007139 -2.93259277 -43.83984375 -3.58203125 C-42.76524902 -3.94458008 -41.6906543 -4.30712891 -40.58349609 -4.68066406 C-28.01476277 -8.71445684 -10.71293609 -8.65769655 0 0 Z M-33.62890625 8.37109375 C-33.62890625 12.33109375 -33.62890625 16.29109375 -33.62890625 20.37109375 C-31.23238097 20.45248517 -28.83865189 20.51176384 -26.44140625 20.55859375 C-25.76787109 20.58373047 -25.09433594 20.60886719 -24.40039062 20.63476562 C-19.9427695 20.6999991 -17.12789329 20.18606829 -13.62890625 17.37109375 C-12.38213619 14.47402668 -12.38213619 14.47402668 -12.62890625 11.37109375 C-14.65734586 8.24391601 -16.17345676 7.49861961 -19.75390625 6.49609375 C-24.69050425 6.33684865 -28.82030213 7.25128183 -33.62890625 8.37109375 Z M-33.62890625 32.37109375 C-33.91700342 37.94097232 -33.83110308 41.56779851 -30.62890625 46.37109375 C-27.69628639 48.76063586 -24.38297623 48.7948136 -20.6640625 48.68359375 C-17.17500184 48.14784547 -15.18117019 46.73660667 -12.62890625 44.37109375 C-11.5873691 41.2464823 -11.41780049 39.32106968 -12.12890625 36.12109375 C-14.49746435 33.35777596 -17.15630962 32.82103152 -20.62890625 32.37109375 C-24.96816229 32.21937151 -29.289179 32.25362745 -33.62890625 32.37109375 Z " fill="#3A4555" transform="translate(287.62890625,224.62890625)"/>
<path d="M0 0 C6.20587245 5.74227587 9.91172069 13.63209005 10.63671875 22.01171875 C10.87993091 33.27349907 9.99678238 43.09989701 2.55078125 52.12890625 C-4.37422755 59.19445951 -12.60961475 61.94634134 -22.4296875 62.19921875 C-31.59177199 61.75985222 -38.67965805 58.59940509 -45.07421875 52.00390625 C-52.83328309 42.438582 -53.83052715 32.00764449 -52.69921875 20.12890625 C-51.089655 11.437262 -47.50676104 4.82905724 -40.69921875 -0.87109375 C-27.73492322 -9.213858 -12.39996607 -9.23729976 0 0 Z M-32.69921875 14.12890625 C-36.44594238 20.73027645 -36.02790611 28.30261369 -34.56640625 35.5 C-33.23675998 39.53086459 -30.98922435 42.46676431 -27.69921875 45.12890625 C-22.87471699 46.7370735 -18.50988495 46.93364678 -13.88671875 44.87890625 C-9.20574649 41.13412844 -7.43253807 37.06482886 -6.69921875 31.12890625 C-6.59774175 24.15743611 -7.55828569 17.87550723 -11.69921875 12.12890625 C-14.77437508 9.23464146 -17.54439335 8.87432307 -21.63671875 8.62890625 C-26.99562828 8.79662175 -29.16114246 10.14857042 -32.69921875 14.12890625 Z " fill="#3A4555" transform="translate(355.69921875,224.87109375)"/>
<path d="M0 0 C3.38163408 2.5768702 4.93300871 4.86856474 6.1875 8.86328125 C6.3828125 11.7578125 6.3828125 11.7578125 6.3125 14.67578125 C6.29445313 15.65160156 6.27640625 16.62742188 6.2578125 17.6328125 C6.23460938 18.36886719 6.21140625 19.10492188 6.1875 19.86328125 C3.67345576 18.64170661 1.37845948 17.35564798 -1 15.86328125 C-8.5451721 11.58608178 -16.39642932 11.16017684 -24.8125 12.86328125 C-30.67828375 14.78534621 -34.28644649 17.72531756 -37.8125 22.86328125 C-41.93891596 31.09608202 -42.08278494 39.9579685 -40.15625 48.9140625 C-37.74976916 55.74971283 -33.70894999 59.65178261 -27.5 63.17578125 C-18.40635952 65.50206137 -9.26645433 65.41359011 -0.82421875 60.76953125 C0.53186426 59.82733958 1.86241955 58.84859748 3.1875 57.86328125 C4.1775 57.86328125 5.1675 57.86328125 6.1875 57.86328125 C6.53303378 63.62217759 6.55452695 67.92497506 3.1875 72.86328125 C-2.67191603 79.00852245 -9.80966839 80.96022912 -18.1875 81.23828125 C-30.65741349 80.81616852 -41.38816649 76.75273376 -50.125 67.73828125 C-58.6164335 57.59669063 -60.60423209 45.68934114 -59.8125 32.86328125 C-58.08697828 21.73570414 -53.54000218 11.08579964 -44.47265625 4.046875 C-31.94745885 -4.56082881 -13.65480099 -8.56367907 0 0 Z " fill="#3A4555" transform="translate(59.8125,205.13671875)"/>
<path d="M0 0 C8.11062968 8.98563537 8.34258126 18.35621538 8.3125 29.9375 C8.32861328 31.17435547 8.34472656 32.41121094 8.36132812 33.68554688 C8.3656715 41.81199706 8.1068654 48.30534925 2.6875 54.75 C-6.88079699 62.76066725 -15.94936246 62.95735773 -28 62 C-35.06063834 60.62976487 -39.22693287 57.4135717 -43.72265625 51.90234375 C-47.08355135 46.89697398 -46.53144883 40.77857039 -46 35 C-44.75263182 30.97991055 -42.57496251 28.49282501 -39.375 25.75 C-29.35401058 20.55393141 -20.02996335 20.65451391 -9 21 C-9.84644002 15.30830277 -9.84644002 15.30830277 -13.2734375 11.02734375 C-21.21301133 8.03578513 -29.17903046 9.93962061 -36.8203125 12.9296875 C-39.13696569 13.92160271 -39.13696569 13.92160271 -41 16 C-41.99 16 -42.98 16 -44 16 C-44.33609891 10.51038453 -43.68167985 6.82702374 -41 2 C-30.53613564 -8.46386436 -11.74191828 -8.81688526 0 0 Z M-29 38 C-28.92903335 41.90316601 -28.86497221 44.16205817 -26 46.9375 C-21.87936187 48.39689267 -18.31610691 48.79609928 -14 48 C-10.73022394 46.31366812 -10.73022394 46.31366812 -9 43 C-8.60810312 39.62246766 -8.70446147 36.38227434 -9 33 C-19.93638057 32.45679767 -19.93638057 32.45679767 -29 38 Z " fill="#3A4555" transform="translate(622,224)"/>
<path d="M0 0 C1.58294782 -0.05437607 3.16644256 -0.09296271 4.75 -0.125 C5.63171875 -0.14820313 6.5134375 -0.17140625 7.421875 -0.1953125 C10.16933016 0.01282804 11.70242422 0.50521254 14 2 C16.9629751 6.55351892 17.37726755 10.22672761 17.40625 15.59375 C17.41708618 16.30349976 17.42792236 17.01324951 17.43908691 17.74450684 C17.48461099 20.75555215 17.49638362 23.76650479 17.51123047 26.77783203 C17.52700435 28.98760874 17.56001524 31.19668597 17.59375 33.40625 C17.60083984 34.71916016 17.60792969 36.03207031 17.61523438 37.38476562 C18.03339739 41.31379987 18.88751922 43.67696965 21 47 C26.3 51.6 26.3 51.6 41 50 C41 33.5 41 17 41 0 C51 0 51 0 54 1.625 C59.00274319 7.56575753 58.26390222 14.6088557 58.1953125 21.9609375 C58.1924826 23.10664215 58.18965271 24.2523468 58.18673706 25.43276978 C58.17557135 29.08028755 58.15047299 32.72755685 58.125 36.375 C58.11496555 38.85286103 58.10584051 41.33072592 58.09765625 43.80859375 C58.0756438 49.87248014 58.04220194 55.93622231 58 62 C44.3510775 66.65091911 27.57374787 68.94489334 14 63 C7.631039 59.51509681 3.53318853 55.33588636 1.3737793 48.43798828 C-0.15363518 43.08982008 -0.38933506 38.14977322 -0.29296875 32.6171875 C-0.28872391 31.67690704 -0.28447906 30.73662659 -0.28010559 29.76785278 C-0.26348872 26.80326079 -0.22586997 23.83938194 -0.1875 20.875 C-0.17243115 18.84896824 -0.15874662 16.82292569 -0.14648438 14.796875 C-0.11364116 9.86431406 -0.06197926 4.93227737 0 0 Z " fill="#3A4555" transform="translate(438,220)"/>
<path d="M0 0 C1.58294782 -0.05437607 3.16644256 -0.09296271 4.75 -0.125 C5.63171875 -0.14820313 6.5134375 -0.17140625 7.421875 -0.1953125 C10.18053568 0.01367695 11.70914841 0.46875215 14 2 C16.70776076 6.95822274 17.37429612 10.76779998 17.40625 16.47265625 C17.41708618 17.15879501 17.42792236 17.84493378 17.43908691 18.55186462 C17.48450503 21.454516 17.49639486 24.3570673 17.51123047 27.26000977 C17.52700553 29.39370672 17.56000898 31.52667963 17.59375 33.66015625 C17.60083984 34.92480713 17.60792969 36.18945801 17.61523438 37.49243164 C18.0395939 41.36094265 18.92700545 43.72000849 21 47 C26.3 51.6 26.3 51.6 41 50 C41 33.5 41 17 41 0 C51 0 51 0 54 1.5625 C59.0145777 7.67401657 58.26705483 15.33773056 58.1953125 22.83984375 C58.1924826 23.96193741 58.18965271 25.08403107 58.18673706 26.24012756 C58.17558775 29.80602918 58.15049251 33.37167494 58.125 36.9375 C58.11496343 39.36262657 58.10583876 41.78775709 58.09765625 44.21289062 C58.07566559 50.14201363 58.04224027 56.07098853 58 62 C44.3510775 66.65091911 27.57374787 68.94489334 14 63 C6.77659107 59.0475687 3.04205028 54.19315957 0.60653687 46.53787231 C-0.43182386 42.19316207 -0.36811654 37.94169013 -0.29296875 33.49609375 C-0.28872391 32.5322023 -0.28447906 31.56831085 -0.28010559 30.57521057 C-0.26345681 27.52900985 -0.22583111 24.48349712 -0.1875 21.4375 C-0.1724353 19.35873359 -0.15875004 17.27995669 -0.14648438 15.20117188 C-0.11359864 10.13385384 -0.06191324 5.06704313 0 0 Z " fill="#3A4555" transform="translate(74,220)"/>
<path d="M0 0 C1.91541138 -0.10841951 3.83259773 -0.18578079 5.75 -0.25 C6.81734375 -0.29640625 7.8846875 -0.3428125 8.984375 -0.390625 C12.67433406 0.08734897 13.72626726 1.13127178 16 4 C17.14654482 6.29308963 17.19729117 7.79909656 17.31640625 10.3515625 C17.35830078 11.20234375 17.40019531 12.053125 17.44335938 12.9296875 C17.48267578 13.81914062 17.52199219 14.70859375 17.5625 15.625 C17.60568359 16.5221875 17.64886719 17.419375 17.69335938 18.34375 C17.79956861 20.56234283 17.90161194 22.7810488 18 25 C18.64066406 24.154375 19.28132812 23.30875 19.94140625 22.4375 C27.72198772 12.20878989 27.72198772 12.20878989 31.6875 7.4375 C32.40486328 6.56931641 32.40486328 6.56931641 33.13671875 5.68359375 C38.88232786 0.49206854 43.43599049 -0.58425749 50.9375 -0.25 C51.71673828 -0.23195312 52.49597656 -0.21390625 53.29882812 -0.1953125 C55.19976131 -0.14866383 57.10005169 -0.07693829 59 0 C57.47544717 3.65726061 55.29302019 5.84997926 52.4375 8.5625 C47.17592256 13.70969532 42.52770619 19.20379534 38 25 C37.37996094 25.66257813 36.75992188 26.32515625 36.12109375 27.0078125 C34.73953803 28.96329645 34.73953803 28.96329645 35.4296875 31.28515625 C37.60181526 35.04045175 40.26411191 38.18784731 43.125 41.4375 C43.70813965 42.10475098 44.2912793 42.77200195 44.89208984 43.45947266 C49.55782817 48.70116428 54.17252387 53.72417462 61 56 C60.66602151 59.00580638 60.15988669 60.77861843 58.375 63.25 C55.17730753 65.60619445 52.95482449 65.86593815 49 66 C43.27711062 65.01329494 40.92066716 63.13685895 37 59 C36.13761719 58.10023438 35.27523437 57.20046875 34.38671875 56.2734375 C33.49597656 55.31695312 32.60523438 54.36046875 31.6875 53.375 C30.80449219 52.43398438 29.92148437 51.49296875 29.01171875 50.5234375 C25.06426593 45.9052761 21.57334509 40.9133495 18 36 C17.67 45.57 17.34 55.14 17 65 C5.2 65 5.2 65 2 62 C0.36419945 57.94539517 -0.24675669 54.53322748 -0.22705078 50.17822266 C-0.22689972 49.05751373 -0.22674866 47.93680481 -0.22659302 46.78213501 C-0.21627045 45.58817108 -0.20594788 44.39420715 -0.1953125 43.1640625 C-0.1924826 41.92957367 -0.18965271 40.69508484 -0.18673706 39.42318726 C-0.17556522 35.49035851 -0.15046564 31.55775963 -0.125 27.625 C-0.11383825 24.95443041 -0.10584119 22.28386299 -0.09765625 19.61328125 C-0.07563565 13.07544275 -0.04218759 6.5377378 0 0 Z " fill="#3A4555" transform="translate(510,220)"/>
<path d="M0 0 C4.23741965 0.06439847 6.87734483 0.10635727 10.4453125 2.5390625 C13.49111906 6.76934939 16.16727473 11.10685308 18.6953125 15.6640625 C19.10652344 16.39109375 19.51773438 17.118125 19.94140625 17.8671875 C27.29051033 31.64976959 34.6953125 49.83668597 34.6953125 65.6640625 C32.6555315 65.80024966 30.61306987 65.89658878 28.5703125 65.9765625 C27.43335938 66.03457031 26.29640625 66.09257812 25.125 66.15234375 C21.68377736 65.66242025 19.57844617 64.9577287 17.01708984 62.5612793 C14.02788648 58.27071791 13.22221387 52.93545779 12.0703125 47.9140625 C10.36622126 40.79224721 8.7419173 34.03425251 5.45166016 27.45996094 C4.6953125 25.6640625 4.6953125 25.6640625 4.6953125 22.6640625 C4.0353125 22.6640625 3.3753125 22.6640625 2.6953125 22.6640625 C2.42158813 23.48958618 2.42158813 23.48958618 2.14233398 24.33178711 C0.85665036 28.20035034 -0.43816377 32.06486653 -1.76953125 35.91796875 C-5.13708947 45.73231736 -7.9636053 55.55609581 -10.3046875 65.6640625 C-20.20383413 66.27849229 -20.20383413 66.27849229 -23.9921875 64.1640625 C-26.47257881 59.43950762 -25.62095907 54.26559871 -24.23828125 49.2890625 C-23.75435573 47.7426952 -23.25500794 46.20108915 -22.7421875 44.6640625 C-22.4733374 43.8395459 -22.2044873 43.0150293 -21.92749023 42.16552734 C-17.65148742 29.37562068 -11.9769298 17.37351743 -5.3046875 5.6640625 C-4.84320313 4.73207031 -4.38171875 3.80007812 -3.90625 2.83984375 C-2.3046875 0.6640625 -2.3046875 0.6640625 0 0 Z " fill="#3A4555" transform="translate(396.3046875,219.3359375)"/>
</svg>
