<?xml version="1.0" encoding="UTF-8"?>
<svg version="1.1" xmlns="http://www.w3.org/2000/svg" width="631" height="287">
<path d="M0 0 C25.28544032 5.30404908 49.92813341 17.75477359 73 29 C74.0302832 29.50144531 75.06056641 30.00289062 76.12207031 30.51953125 C95.32542402 39.96237401 113.87001083 50.6802081 129 66 C129.89332031 66.82951172 129.89332031 66.82951172 130.8046875 67.67578125 C132 69 132 69 132 71 C126.78298274 69.47527932 122.30681703 67.14496333 117.5625 64.5625 C101.10203894 55.76611761 84.25646357 47.87667731 66.98339844 40.81396484 C64.29245827 39.70963268 61.61612194 38.57132764 58.9375 37.4375 C56.95998257 36.62099418 54.98068186 35.80879929 53 35 C52.10885498 34.63189209 52.10885498 34.63189209 51.19970703 34.25634766 C36.74821418 28.3198122 21.89846233 23.66313274 7 19 C7.44988281 20.06089844 7.89976562 21.12179688 8.36328125 22.21484375 C25.42554889 63.23025778 35.8779813 106.23439511 43 150 C47.19131471 145.13266678 50.43686046 139.69328425 53.8125 134.25 C54.46250977 133.20682617 55.11251953 132.16365234 55.78222656 131.08886719 C61.34543495 122.12844273 66.78257353 113.09555806 72.16333008 104.02441406 C72.7539624 103.03151367 73.34459473 102.03861328 73.953125 101.015625 C74.47036133 100.14196289 74.98759766 99.26830078 75.52050781 98.36816406 C76.91787374 96.13145622 78.29049837 94.00974085 80 92 C80.66 92 81.32 92 82 92 C78.95779893 110.28217979 70.80821946 125.88548383 62 142 C61.12745182 143.61710531 60.25505535 145.23429248 59.3828125 146.8515625 C47.99565798 167.81364363 47.99565798 167.81364363 41 174 C38 174.3125 38 174.3125 35 173 C30.68707005 166.53971263 29.49001822 158.3126092 27.85321045 150.85406494 C18.70296383 109.39825073 6.04849195 68.60118997 -8.53686523 28.75073242 C-15.71759944 9.07314805 -15.71759944 9.07314805 -14 3 C-10.57383053 -1.79243337 -5.28753465 -0.62025668 0 0 Z " fill="#F38533" transform="translate(270,0)"/>
<path d="M0 0 C10.68351064 -0.62234043 10.68351064 -0.62234043 15.4375 1.625 C26.07475795 11.48392201 29.72597606 25.4971102 34 39 C34.52227314 37.70891484 35.04263248 36.41705569 35.5625 35.125 C35.92730469 34.22007812 36.29210937 33.31515625 36.66796875 32.3828125 C37.676101 29.82257049 38.65431543 27.25827748 39.61328125 24.6796875 C46.98201901 5.01798099 46.98201901 5.01798099 52 0 C57.20593454 -0.61143526 61.55474714 -0.9635019 66 2 C71.31690978 9.97536466 71.8289006 18.35685605 72.625 27.6875 C72.7506148 29.06717909 72.87667636 30.44681757 73.00317383 31.82641602 C73.99357206 42.86946566 74.64174346 53.9187546 75 65 C72.91781638 65.10832169 70.83400871 65.18573541 68.75 65.25 C67.58984375 65.29640625 66.4296875 65.3428125 65.234375 65.390625 C62 65 62 65 59.640625 63.109375 C56.8067282 59.4657934 56.76844371 56.90001131 56.5 52.3125 C56.45939453 51.65419189 56.41878906 50.99588379 56.37695312 50.31762695 C56.2031861 47.49825693 56.03959166 44.67831655 55.875 41.85839844 C55.75348603 39.80120495 55.62687088 37.74436892 55.5 35.6875 C55.39171875 33.83705078 55.39171875 33.83705078 55.28125 31.94921875 C55.18543945 29.07064334 55.18543945 29.07064334 54 27 C53.71801758 27.83136475 53.43603516 28.66272949 53.14550781 29.51928711 C52.08276623 32.64593204 51.01624773 35.7712377 49.94726562 38.89575195 C49.48809759 40.24029757 49.03037753 41.58533868 48.57421875 42.9309082 C46.02621315 50.44361332 43.37667683 57.81272759 40 65 C32.74612274 65.49178829 32.74612274 65.49178829 29.41015625 63.29296875 C20.8351332 55.13488361 18.08699208 40.79646262 14.66088867 29.85083008 C14.15234881 28.00963574 14.15234881 28.00963574 13 27 C12.94465088 27.90242432 12.88930176 28.80484863 12.83227539 29.73461914 C12.62390689 33.10992862 12.41300811 36.48506085 12.20043945 39.86010742 C12.10926866 41.31577421 12.01908186 42.77150299 11.92993164 44.22729492 C11.80098328 46.33008966 11.6683975 48.43262967 11.53515625 50.53515625 C11.456604 51.797229 11.37805176 53.05930176 11.29711914 54.35961914 C11.00434146 57.94680729 10.54682116 61.44466093 10 65 C8.41705218 65.05437607 6.83355744 65.09296271 5.25 65.125 C4.36828125 65.14820313 3.4865625 65.17140625 2.578125 65.1953125 C-0.17990095 64.98637114 -1.69903523 64.51063339 -4 63 C-6.76071903 58.85892145 -6.38279973 55.56579745 -6.375 50.6875 C-6.3747583 49.2651001 -6.3747583 49.2651001 -6.37451172 47.81396484 C-6.13511357 32.02124681 -4.23358075 15.2180065 0 0 Z " fill="#FCFCFC" transform="translate(151,220)"/>
<path d="M0 0 C3.63199158 3.72279137 4.33268713 6.82307105 4.625 11.875 C4.45405213 18.10682676 2.31023741 21.63845024 -2 26 C-1.05125 26.86625 -0.1025 27.7325 0.875 28.625 C4.33843485 32.13756158 5.9624333 35.06979765 6.02734375 40.1328125 C5.62091304 46.28137963 4.00983473 51.24585511 -0.609375 55.47265625 C-8.76844062 61.66415958 -18.91368595 62.6821051 -28.921875 61.71875 C-36.5048129 60.34003402 -41.63807832 57.85286129 -46.703125 52.01171875 C-50.49982165 46.12226461 -50.26673725 40.0994248 -50.1953125 33.3515625 C-50.1924826 32.33903412 -50.18965271 31.32650574 -50.18673706 30.28329468 C-50.17558254 27.06374062 -50.15048646 23.84446935 -50.125 20.625 C-50.1149641 18.43620195 -50.10583931 16.24739951 -50.09765625 14.05859375 C-50.0756587 8.70563342 -50.04222824 3.35283692 -50 -2 C-47.90682736 -2.65289556 -45.81294028 -3.30350097 -43.71875 -3.953125 C-42.55279297 -4.31567383 -41.38683594 -4.67822266 -40.18554688 -5.05175781 C-27.03758582 -8.96551323 -11.05793249 -8.91124582 0 0 Z M-33 8 C-33 11.96 -33 15.92 -33 20 C-30.60293877 20.10854617 -28.21084162 20.18753157 -25.8125 20.25 C-25.13896484 20.28351563 -24.46542969 20.31703125 -23.77148438 20.3515625 C-20.14737612 20.42227681 -18.1551303 20.09582785 -15.046875 18.17578125 C-12.73435345 16.11170249 -12.73435345 16.11170249 -12.4375 12.9375 C-12.74953381 9.98583254 -12.74953381 9.98583254 -14.5625 8.1875 C-21.00409798 5.0492856 -26.38399372 6.2696599 -33 8 Z M-33 32 C-33.56112762 38.84219732 -33.56112762 38.84219732 -31.125 45.0625 C-27.80498432 48.08957312 -25.52465897 48.27545001 -21.03515625 48.2265625 C-17.11594607 47.79025887 -14.70068151 45.70068151 -12 43 C-11.49992206 39.54213985 -11.49992206 39.54213985 -12 36 C-14.63163447 33.0759617 -17.2150695 32.59677171 -21 32 C-23.10323534 31.9340265 -25.20835724 31.91437755 -27.3125 31.9375 C-28.91544922 31.95103516 -28.91544922 31.95103516 -30.55078125 31.96484375 C-31.35902344 31.97644531 -32.16726562 31.98804688 -33 32 Z " fill="#FCFCFC" transform="translate(288,225)"/>
<path d="M0 0 C7.84521982 7.37214124 10.53382819 16.17906973 11.03125 26.76171875 C10.92861702 37.39706083 7.95637351 45.87673485 0.8125 53.8125 C-5.66908387 59.8591724 -14.27455367 62.12231934 -23 62 C-31.52269997 61.15809195 -38.78406538 58.65759782 -44.75 52.375 C-51.27931763 44.38478482 -53.94180629 34.22287918 -53 24 C-51.42058791 14.88418064 -48.8014616 6.88785846 -42.25 0.1875 C-29.26408547 -8.5530194 -12.7751053 -10.45235888 0 0 Z M-32 13 C-35.75450814 20.0084152 -36.12052243 27.64928822 -34.49609375 35.40625 C-33.01483602 39.94313081 -30.98240877 42.44717386 -27 45 C-23.47423853 46.76288074 -19.83887334 46.65863023 -16 46 C-12.12651953 43.89579727 -9.66718824 41.21834375 -7.5625 37.375 C-6.25432991 29.52597948 -5.72971033 21.03055295 -10 14 C-12.59361578 10.96357177 -14.42019282 9.29027351 -18.40234375 8.55859375 C-23.99968892 8.29766488 -27.85459977 8.95570709 -32 13 Z " fill="#FCFCFC" transform="translate(356,225)"/>
<path d="M0 0 C3.81880438 3.18233698 6.74667898 6.08097382 7.4140625 11.13671875 C7.51847656 12.89435547 7.51847656 12.89435547 7.625 14.6875 C7.73714844 16.45673828 7.73714844 16.45673828 7.8515625 18.26171875 C7.90054688 19.16535156 7.94953125 20.06898438 8 21 C4.90198124 20.39133848 2.87947505 19.37606519 0.3125 17.5625 C-7.26052875 12.74202967 -15.28848984 12.07945093 -24 14 C-30.34256323 16.36618845 -34.94423926 19.90075066 -38 26 C-41.58797505 35.20448723 -40.96184375 44.63972878 -37.19140625 53.69140625 C-34.12144118 59.64009266 -29.12969773 62.76498386 -23 65 C-14.08518027 67.22065907 -5.6120574 65.28433238 2.30859375 60.90234375 C4 60 4 60 7 59 C7.32822893 64.12401833 7.58411611 68.56626046 5.625 73.375 C-0.36278052 79.36278052 -8.12094187 82.07782757 -16.5 82.25 C-28.62233933 82.0518637 -39.32954627 78.58201969 -48.0625 69.96484375 C-56.42485713 60.03454466 -59.65262049 48.54886823 -58.77734375 35.7421875 C-57.26536768 23.32343257 -52.57498277 13.24632754 -43 5 C-30.37724672 -3.11822881 -14.11143861 -6.55081462 0 0 Z " fill="#FBFBFB" transform="translate(59,204)"/>
<path d="M0 0 C6.50231465 5.61822801 9.17575142 12.8483556 9.875 21.25390625 C11.09238508 47.99833478 11.09238508 47.99833478 4 56 C-5.53556222 63.46337743 -14.22593598 63.80042979 -26 63 C-32.77242111 61.843955 -38.16356344 58.95864044 -42.25390625 53.25 C-45.28277422 48.01544072 -45.96184599 42.95567267 -45 37 C-42.73277777 30.63480391 -38.43481767 27.17392995 -32.5 24.3125 C-26.6034696 22.1013011 -21.40950397 21.86969945 -15.1875 21.9375 C-14.00510742 21.94426758 -14.00510742 21.94426758 -12.79882812 21.95117188 C-10.86585239 21.96288688 -8.93291607 21.98082002 -7 22 C-7.99 18.7 -8.98 15.4 -10 12 C-21.98938453 9.60212309 -31.22657362 11.46365589 -42 17 C-42.35046991 12.07395065 -42.54197029 8.17065583 -40.4375 3.625 C-30.49629257 -7.0809157 -11.99428383 -7.85340013 0 0 Z M-26 37 C-27.88529093 39.25198691 -27.88529093 39.25198691 -28 42 C-26.44393624 45.52161797 -25.23307656 46.84461563 -22 49 C-17.43948005 49.73446576 -13.98088926 49.59262059 -10 47.1875 C-7.22212449 44.14919866 -6.87249074 41.77806468 -6.9375 37.8125 C-6.958125 36.554375 -6.97875 35.29625 -7 34 C-14.01552256 33.65180311 -19.70122684 33.6788287 -26 37 Z " fill="#FCFCFC" transform="translate(621,223)"/>
<path d="M0 0 C1.60400582 -0.03554844 3.20823888 -0.0609452 4.8125 -0.08203125 C6.15248047 -0.10487183 6.15248047 -0.10487183 7.51953125 -0.12817383 C10.74006354 0.03824147 12.54733599 0.93056474 15 3 C17.4553632 6.68304479 17.26586938 8.5829335 17.30859375 12.9765625 C17.33377932 14.38411827 17.35917692 15.79167025 17.38476562 17.19921875 C17.41333413 19.4041217 17.43736223 21.60895805 17.45629883 23.81396484 C17.09969542 35.91458241 17.09969542 35.91458241 21 47 C27.02899151 51.2004901 27.02899151 51.2004901 40 50 C40.33 33.5 40.66 17 41 0 C52.68965517 0 52.68965517 0 56 3 C57.77353952 6.62111661 58.24583219 9.51482756 58.22705078 13.5246582 C58.22689972 14.60540115 58.22674866 15.6861441 58.22659302 16.79963684 C58.21627045 17.9550145 58.20594788 19.11039215 58.1953125 20.30078125 C58.1924826 21.49229294 58.18965271 22.68380463 58.18673706 23.91142273 C58.17555433 27.71188456 58.1504528 31.51210956 58.125 35.3125 C58.11496775 37.89127263 58.10584233 40.47004897 58.09765625 43.04882812 C58.0756212 49.36596603 58.04216232 55.68296609 58 62 C45.8000136 67.07022465 28.79155702 68.51729318 16.21484375 64.0390625 C9.74448966 61.00358774 4.53522589 56.87722275 2 50 C-0.89693642 39.87267358 -0.22504705 29.23155107 -0.125 18.8125 C-0.11494913 16.98372886 -0.10582701 15.15495238 -0.09765625 13.32617188 C-0.07581189 8.88398044 -0.04139842 4.44205047 0 0 Z " fill="#FDFDFD" transform="translate(438,220)"/>
<path d="M0 0 C1.60400582 -0.03554844 3.20823888 -0.0609452 4.8125 -0.08203125 C6.15248047 -0.10487183 6.15248047 -0.10487183 7.51953125 -0.12817383 C10.74006354 0.03824147 12.54733599 0.93056474 15 3 C17.49144706 6.73717059 17.26676593 8.76528055 17.30859375 13.23046875 C17.33377284 14.68815471 17.35917056 16.14583691 17.38476562 17.60351562 C17.41337678 19.88971813 17.43740376 22.17585464 17.45629883 24.4621582 C17.29070118 36.1466487 17.29070118 36.1466487 21 47 C27.02899151 51.2004901 27.02899151 51.2004901 40 50 C40.33 33.5 40.66 17 41 0 C51 0 51 0 55 2 C59.09495053 7.55730915 58.38170667 13.80655209 58.29296875 20.3984375 C58.28872391 21.58853424 58.28447906 22.77863098 58.28010559 24.00479126 C58.26335169 27.79509375 58.22570416 31.58485898 58.1875 35.375 C58.17244897 37.94921106 58.1587613 40.52343047 58.14648438 43.09765625 C58.11345883 49.39861992 58.06329145 55.69927157 58 62 C45.8000136 67.07022465 28.79155702 68.51729318 16.21484375 64.0390625 C9.74448966 61.00358774 4.53522589 56.87722275 2 50 C-0.89693642 39.87267358 -0.22504705 29.23155107 -0.125 18.8125 C-0.11494913 16.98372886 -0.10582701 15.15495238 -0.09765625 13.32617188 C-0.07581189 8.88398044 -0.04139842 4.44205047 0 0 Z " fill="#FDFDFD" transform="translate(74,220)"/>
<path d="M0 0 C1.76777787 -0.06258452 3.53619277 -0.1073587 5.3046875 -0.14453125 C6.78171143 -0.18477417 6.78171143 -0.18477417 8.28857422 -0.22583008 C11 0 11 0 14.125 2.3125 C17.22394671 6.75432362 17.28322323 10.94533777 17.5625 16.1875 C17.60568359 16.93708984 17.64886719 17.68667969 17.69335938 18.45898438 C17.79922685 20.30578375 17.9000976 22.15286834 18 24 C18.67482422 23.12601563 18.67482422 23.12601563 19.36328125 22.234375 C23.33315485 17.17457618 27.43861937 12.26991446 31.75 7.5 C32.20930908 6.98405273 32.66861816 6.46810547 33.1418457 5.93652344 C36.13351684 2.66576023 38.59066853 0.25969846 43.10644531 -0.22705078 C44.20617676 -0.21134033 44.20617676 -0.21134033 45.328125 -0.1953125 C46.12734375 -0.18886719 46.9265625 -0.18242187 47.75 -0.17578125 C48.575 -0.15902344 49.4 -0.14226562 50.25 -0.125 C51.09046875 -0.11597656 51.9309375 -0.10695312 52.796875 -0.09765625 C54.86470604 -0.07415817 56.93238995 -0.03828908 59 0 C55.97766182 3.53834714 52.94731779 7.06745544 49.875 10.5625 C44.52673105 16.65928514 39.27152098 22.83690815 34 29 C35.52914379 32.40510369 37.53334679 35.10165188 39.875 38 C40.55304687 38.845625 41.23109375 39.69125 41.9296875 40.5625 C43.9563784 43.0284575 43.9563784 43.0284575 46.2578125 45.1875 C48 47 48 47 48 49 C48.84304688 49.39832031 48.84304688 49.39832031 49.703125 49.8046875 C52.17930222 51.09331034 54.43844882 52.56130361 56.75 54.125 C57.54921875 54.66382813 58.3484375 55.20265625 59.171875 55.7578125 C59.77515625 56.16773438 60.3784375 56.57765625 61 57 C58.375 62.75 58.375 62.75 55 65 C49.2027493 66.47773057 45.11069152 65.92620111 40 63 C31.27421363 56.12868724 24.57159157 45.76212209 18 37 C17.67 46.24 17.34 55.48 17 65 C6 65 6 65 2.875 63.125 C-0.1146438 59.73673702 -0.12298578 57.80331481 -0.11352539 53.35693359 C-0.11344986 52.17586029 -0.11337433 50.99478699 -0.11329651 49.77792358 C-0.10813522 48.49769318 -0.10297394 47.21746277 -0.09765625 45.8984375 C-0.0962413 44.59170074 -0.09482635 43.28496399 -0.09336853 41.93862915 C-0.08954894 38.46323742 -0.07972342 34.98788743 -0.06866455 31.51251221 C-0.05843843 27.96668055 -0.05386833 24.42084215 -0.04882812 20.875 C-0.03810066 13.91664951 -0.02103092 6.95832676 0 0 Z " fill="#FCFCFC" transform="translate(511,220)"/>
<path d="M0 0 C0.74636719 0.00128906 1.49273437 0.00257813 2.26171875 0.00390625 C3.00035156 -0.01800781 3.73898437 -0.03992188 4.5 -0.0625 C9.49479632 1.22005535 12.65574697 4.75697412 15.22265625 9.03515625 C15.94080101 10.36957058 16.64050326 11.71402811 17.32421875 13.06640625 C17.70215576 13.79980225 18.08009277 14.53319824 18.46948242 15.28881836 C25.86644169 30.04418697 34.56568498 48.74201548 33.94921875 65.56640625 C31.88789733 65.6750557 29.82490554 65.75228946 27.76171875 65.81640625 C26.61316406 65.8628125 25.46460938 65.90921875 24.28125 65.95703125 C20.1978191 65.47831719 18.71391909 64.58691516 15.94921875 61.56640625 C14.796875 58.52734375 14.796875 58.52734375 14.01171875 54.94140625 C13.69658175 53.60553932 13.3760082 52.27094637 13.05078125 50.9375 C12.8796582 50.23222168 12.70853516 49.52694336 12.53222656 48.80029297 C11.49135224 44.81201822 10.19297232 40.91180497 8.88671875 37.00390625 C8.64123291 36.2547998 8.39574707 35.50569336 8.14282227 34.73388672 C6.71664184 30.48449018 5.06240028 26.535676 2.94921875 22.56640625 C-3.08522109 36.54559677 -6.79985485 50.71070148 -10.05078125 65.56640625 C-11.98759286 65.64748208 -13.92537465 65.705631 -15.86328125 65.75390625 C-16.94222656 65.78871094 -18.02117187 65.82351563 -19.1328125 65.859375 C-22.05078125 65.56640625 -22.05078125 65.56640625 -23.88647461 64.25390625 C-25.83075471 61.43594357 -25.88785102 58.94980851 -26.05078125 55.56640625 C-25.48439036 52.77108404 -24.85714179 50.2589054 -23.98828125 47.56640625 C-23.75713623 46.82438965 -23.52599121 46.08237305 -23.2878418 45.31787109 C-9.71390274 2.68288742 -9.71390274 2.68288742 0 0 Z " fill="#FCFCFC" transform="translate(397.05078125,219.43359375)"/>
</svg>
