<?xml version="1.0" encoding="UTF-8"?>
<svg version="1.1" xmlns="http://www.w3.org/2000/svg" width="630" height="288">
<path d="M0 0 C22.2698174 6.08373458 43.15987737 15.64985428 64 25.4375 C64.76009369 25.792677 65.52018738 26.147854 66.30331421 26.51379395 C79.59222042 32.73751879 92.37383778 39.53556502 104.5625 47.75 C105.70102417 48.51630737 105.70102417 48.51630737 106.86254883 49.2980957 C116.36524794 55.76640447 124.75527794 62.25569989 131.375 71.8125 C131.045 72.4725 130.715 73.1325 130.375 73.8125 C129.82916763 73.5362529 129.28333527 73.2600058 128.72096252 72.97538757 C69.65002632 38.48966383 69.65002632 38.48966383 5.375 20.8125 C5.66632813 21.58513184 5.95765625 22.35776367 6.2578125 23.15380859 C19.15971076 57.50308411 29.12158117 92.13174856 36.06665039 128.17553711 C36.20649353 128.8976236 36.34633667 129.61971008 36.49041748 130.36367798 C36.86902653 132.32491405 37.24291186 134.28706035 37.61645508 136.24926758 C38.38094139 139.84040943 39.32548551 143.29632999 40.375 146.8125 C46.79063726 137.60544365 52.63274964 128.11468791 58.3125 118.4375 C63.00755509 110.44536186 67.7293234 102.48112046 72.75 94.6875 C73.19593506 93.98963379 73.64187012 93.29176758 74.10131836 92.57275391 C77.12401475 87.93799263 77.12401475 87.93799263 79.375 86.8125 C77.08817718 115.42112015 60.16945451 141.99729887 45.375 165.8125 C44.9934375 166.43092773 44.611875 167.04935547 44.21875 167.68652344 C42.43697698 170.48235477 41.19293524 171.93387651 38.375 173.8125 C36.04300612 173.89155064 33.70667378 173.90048769 31.375 173.8125 C28.064832 167.7485841 26.15881814 161.98417566 24.5625 155.28125 C24.0456619 153.19014343 23.528646 151.0990808 23.01147461 149.00805664 C22.745112 147.91655304 22.47874939 146.82504944 22.20431519 145.70046997 C12.71371399 106.92887577 1.24322817 68.70414798 -12.37890625 31.17578125 C-12.80212158 29.99806152 -13.22533691 28.8203418 -13.66137695 27.60693359 C-14.43680825 25.46205724 -15.22690583 23.32238954 -16.03588867 21.18994141 C-18.28665514 14.96751325 -20.13058436 8.43214636 -18.625 1.8125 C-13.21777754 -3.24553482 -6.69564048 -1.57916049 0 0 Z " fill="#363334" transform="translate(273.625,1.1875)"/>
<path d="M0 0 C6.55771396 -0.41857749 12.58610184 0.35092627 17.91796875 4.48828125 C26.04463812 12.86610596 33 29.28971762 33 41 C33.66 41 34.32 41 35 41 C35.37898438 39.07994141 35.37898438 39.07994141 35.765625 37.12109375 C36.93355705 31.88281604 38.73055513 27.0257365 40.75 22.0625 C41.10271973 21.18803223 41.45543945 20.31356445 41.81884766 19.41259766 C44.67284817 12.48735445 47.63246079 5.36753921 53 0 C57.86532069 -0.3358363 61.8956068 0.24807272 65.9375 3 C71.4265363 10.9840528 71.85644205 20.40023271 72.6875 29.8125 C72.75103668 30.49176544 72.81457336 31.17103088 72.8800354 31.87088013 C73.94204762 43.26049624 74.36718199 54.56296087 74 66 C72.10617836 66.13592021 70.20950296 66.2324094 68.3125 66.3125 C67.25675781 66.37050781 66.20101562 66.42851562 65.11328125 66.48828125 C60.90355445 65.82803552 59.67144486 64.26479235 57 61 C56.26464844 57.84960938 56.26464844 57.84960938 56.109375 54.34375 C56.00496094 52.43916016 56.00496094 52.43916016 55.8984375 50.49609375 C55.84945312 49.17738281 55.80046875 47.85867188 55.75 46.5 C55.62659927 43.88504949 55.49209098 41.27075486 55.359375 38.65625 C55.28928223 36.92084961 55.28928223 36.92084961 55.21777344 35.15039062 C55.0236351 32.34191403 54.62780432 29.73974318 54 27 C53.68772461 27.93271729 53.37544922 28.86543457 53.05371094 29.82641602 C51.88323545 33.31592378 50.70304159 36.80208143 49.52001953 40.28735352 C49.01121411 41.79070092 48.50498045 43.29492146 48.00146484 44.80004883 C47.273502 46.97456753 46.53607133 49.14568423 45.796875 51.31640625 C45.57690857 51.98023819 45.35694214 52.64407013 45.13031006 53.32801819 C43.5585338 57.90296096 41.50326667 61.85835936 39 66 C34.95828893 66.40417111 32.55698778 66.29554454 28.9375 64.375 C20.55345891 56.39125795 17.21350874 39.90541796 14 29 C14 28.01 14 27.02 14 26 C13.34 26 12.68 26 12 26 C12.01160156 26.69512695 12.02320313 27.39025391 12.03515625 28.10644531 C12.11113802 36.36403595 11.63574669 44.51965769 11 52.75 C10.90460938 54.03132813 10.80921875 55.31265625 10.7109375 56.6328125 C10.4778991 59.75552705 10.24085291 62.87788015 10 66 C8.41705218 66.05437607 6.83355744 66.09296271 5.25 66.125 C4.36828125 66.14820313 3.4865625 66.17140625 2.578125 66.1953125 C-0.17910129 65.98643172 -1.70731884 65.5247885 -4 64 C-7.06202205 58.61929755 -7.38199143 54.39511277 -6.9375 48.3125 C-6.8600354 47.04925903 -6.8600354 47.04925903 -6.78100586 45.76049805 C-5.68635624 30.4449935 -3.54878257 14.94307997 0 0 Z " fill="#363334" transform="translate(151,220)"/>
<path d="M0 0 C3.94247418 3.19114201 6.50718915 6.01473287 7.1796875 11.19140625 C7.26456409 17.25159469 6.92476303 20.80427696 2.84375 25.60546875 C2.18375 26.59546875 1.52375 27.58546875 0.84375 28.60546875 C1.25367188 29.02957031 1.66359375 29.45367187 2.0859375 29.890625 C5.77326957 33.90434771 8.077099 37.04724898 8.84375 42.60546875 C8.22407713 48.69716815 6.602572 54.16115246 1.890625 58.3359375 C-8.04021218 64.63560122 -19.23281605 65.73557174 -30.63671875 63.29296875 C-37.30375794 61.47374565 -41.31963205 58.26794704 -45.15625 52.60546875 C-46.73881991 49.17217615 -47.40363751 46.49585211 -47.38330078 42.72338867 C-47.38314972 41.78279099 -47.38299866 40.8421933 -47.38284302 39.87309265 C-47.37252045 38.87083145 -47.36219788 37.86857025 -47.3515625 36.8359375 C-47.3487326 35.79979813 -47.34590271 34.76365875 -47.34298706 33.69612122 C-47.33181454 30.39495168 -47.30671505 27.09405594 -47.28125 23.79296875 C-47.27121643 21.55143622 -47.26209124 19.30989942 -47.25390625 17.06835938 C-47.23188478 11.58063615 -47.19843621 6.09307201 -47.15625 0.60546875 C-45.28324975 -0.04614137 -43.4077445 -0.6905532 -41.53125 -1.33203125 C-40.48710937 -1.69167969 -39.44296875 -2.05132812 -38.3671875 -2.421875 C-26.94536428 -5.88177035 -10.4489518 -6.757746 0 0 Z M-30.15625 10.60546875 C-30.15625 14.56546875 -30.15625 18.52546875 -30.15625 22.60546875 C-27.92769426 22.68689095 -25.69827345 22.74484954 -23.46875 22.79296875 C-22.22738281 22.82777344 -20.98601562 22.86257812 -19.70703125 22.8984375 C-15.66017869 22.56453877 -13.04382052 21.49303927 -10.15625 18.60546875 C-9.6616238 14.38851963 -9.6616238 14.38851963 -11.59375 10.79296875 C-17.90307702 7.86913428 -23.75658535 8.29069643 -30.15625 10.60546875 Z M-30.15625 34.60546875 C-30.85138493 41.79361474 -30.85138493 41.79361474 -28.34375 48.23046875 C-24.27672267 50.78688593 -20.88118293 51.0058868 -16.15625 50.60546875 C-12.69369206 49.21392479 -12.69369206 49.21392479 -10.15625 46.60546875 C-8.83076168 43.16210101 -8.83076168 43.16210101 -9.15625 39.60546875 C-11.45108592 36.37569968 -13.34075465 35.27956141 -17.15625 34.60546875 C-19.40532152 34.537562 -21.65626605 34.52046891 -23.90625 34.54296875 C-25.66195313 34.55650391 -25.66195313 34.55650391 -27.453125 34.5703125 C-28.34515625 34.58191406 -29.2371875 34.59351563 -30.15625 34.60546875 Z " fill="#363334" transform="translate(285.15625,223.39453125)"/>
<path d="M0 0 C7.39788659 5.96827624 10.63125807 12.48711236 12.14453125 21.8046875 C13.25848572 32.51578815 11.94392971 42.48501618 5.70703125 51.4921875 C-1.25589739 59.29226214 -8.38260948 62.73153222 -18.71484375 63.4921875 C-26.88646041 63.4921875 -35.0587714 61.31075812 -41.203125 55.76953125 C-49.05260377 47.38675456 -51.6956221 38.12602315 -51.5703125 26.8203125 C-50.81473075 17.75333149 -47.90466489 8.92796268 -41.29296875 2.4921875 C-29.25629772 -7.4899868 -13.29007006 -8.7392965 0 0 Z M-28.29296875 12.4921875 C-33.99979822 19.7008142 -33.99349621 26.58266223 -33.29296875 35.4921875 C-32.05197096 40.13706496 -30.08080494 42.77597278 -26.54296875 45.9921875 C-22.26798093 47.9652588 -19.98042657 48.01301615 -15.29296875 47.4921875 C-10.71241444 45.61832437 -8.7157775 42.73210282 -6.29296875 38.4921875 C-4.14213982 31.61519502 -4.72296182 24.15482263 -7.25390625 17.47265625 C-9.07271102 14.00598701 -10.93368405 12.55943962 -14.29296875 10.4921875 C-19.86325798 8.87173972 -23.30622682 9.57541392 -28.29296875 12.4921875 Z " fill="#363334" transform="translate(354.29296875,224.5078125)"/>
<path d="M0 0 C3.23235378 2.6821659 5.46335541 5.10033751 7 9 C7.1953125 12.015625 7.1953125 12.015625 7.125 15.25 C7.10695313 16.32765625 7.08890625 17.4053125 7.0703125 18.515625 C7.04710938 19.33546875 7.02390625 20.1553125 7 21 C4.84699402 19.95052219 2.86280633 18.90719252 0.875 17.5625 C-6.5308856 13.53756217 -14.4607436 11.66867657 -22.73046875 13.65625 C-30.212122 15.99868395 -34.09260548 19.06186809 -38.0234375 25.73828125 C-41.30996507 32.77868664 -41.09866291 41.54037367 -39.2734375 48.94921875 C-36.82553112 55.60633 -33.43452024 59.80252503 -27.1875 63.25 C-19.40925832 66.81986465 -12.08411223 66.38172145 -4 64 C-1.4821822 62.80459689 0.86100844 61.50106886 3.22265625 60.0234375 C5 59 5 59 7 59 C7.32822893 64.12401833 7.58411611 68.56626046 5.625 73.375 C-0.36278052 79.36278052 -8.12094187 82.07782757 -16.5 82.25 C-27.62311579 82.06819573 -37.38030436 79.16013056 -46 72 C-48.64059008 69.17563258 -50.89406887 66.23901363 -53 63 C-53.52078125 62.21625 -54.0415625 61.4325 -54.578125 60.625 C-60.21067026 50.22645491 -59.94573466 37.18260307 -57.27734375 25.9609375 C-53.67289045 14.8823148 -47.24090806 6.61295572 -37 1 C-25.87151877 -3.77942696 -11.0517771 -5.92563368 0 0 Z " fill="#363334" transform="translate(59,205)"/>
<path d="M0 0 C6.4895816 6.34209111 8.13349707 13.23323751 8.3984375 22.1953125 C8.40433629 24.16747316 8.40990417 26.13973645 8.39111328 28.11181641 C8.37497109 30.12861162 8.39106115 32.14342019 8.41015625 34.16015625 C8.3823575 43.43567267 7.71092784 50.1026575 1 57 C-8.05823172 63.28573556 -19.25727007 63.24305052 -29.87109375 61.5390625 C-36.57442633 59.56407717 -41.37597298 55.72417436 -44.9375 49.75 C-46.60683287 43.85823692 -46.85081717 38.60249958 -44.9375 32.75 C-39.98036719 25.71406957 -34.39432929 22.59239161 -26 21 C-20.35186839 20.16532005 -14.68098156 19.5601896 -9 19 C-9.85625576 15.49713552 -10.41573241 13.48230117 -13.23828125 11.15234375 C-20.01733228 8.32374396 -27.85365273 9.21734092 -34.5625 11.875 C-36.05508919 12.55459373 -37.53582665 13.26117219 -39 14 C-40.12728516 14.56074219 -40.12728516 14.56074219 -41.27734375 15.1328125 C-41.84582031 15.41898438 -42.41429687 15.70515625 -43 16 C-43.35261421 11.04381139 -43.5637327 7.17082946 -41.375 2.625 C-31.09793928 -8.73385659 -12.0794764 -8.94885415 0 0 Z M-27 36 C-28.72837928 38.27816806 -28.72837928 38.27816806 -29 41 C-27.44393624 44.52161797 -26.23307656 45.84461563 -23 48 C-18.47098739 48.72939154 -14.98627422 48.57532663 -11 46.25 C-7.32842271 42.11947555 -7.89615487 38.39994684 -8 33 C-18.06273743 32.20917343 -18.06273743 32.20917343 -27 36 Z " fill="#363334" transform="translate(622,225)"/>
<path d="M0 0 C7.90343238 0.48603996 7.90343238 0.48603996 11.796875 3.3671875 C14.9514002 7.88867362 14.92333852 12.40998916 15.234375 17.8046875 C15.27755859 18.50207031 15.32074219 19.19945312 15.36523438 19.91796875 C15.47077096 21.63000672 15.5717741 23.34232311 15.671875 25.0546875 C16.27773438 24.23226562 16.88359375 23.40984375 17.5078125 22.5625 C32.5648008 2.37624134 32.5648008 2.37624134 40.109375 0.4296875 C45.25474442 -0.23423113 50.49510586 -0.11948417 55.671875 0.0546875 C55.1197793 3.91073089 53.48021983 5.50874222 50.671875 8.1171875 C45.53086713 13.07809637 41.12165078 18.47740567 36.671875 24.0546875 C35.01493929 26.06309442 33.3440132 28.05890964 31.671875 30.0546875 C33.11282082 34.63874906 35.72724129 37.64615979 38.984375 41.0546875 C39.6949707 41.81652344 39.6949707 41.81652344 40.41992188 42.59375 C41.8249747 44.09298557 43.24547111 45.57577795 44.671875 47.0546875 C45.51492188 47.93511719 46.35796875 48.81554687 47.2265625 49.72265625 C49.53638058 51.92546998 51.80398309 53.64693598 54.484375 55.3671875 C55.27457031 55.87894531 56.06476562 56.39070313 56.87890625 56.91796875 C57.47058594 57.29308594 58.06226563 57.66820312 58.671875 58.0546875 C56.046875 63.8046875 56.046875 63.8046875 52.671875 66.0546875 C50.18359375 66.390625 50.18359375 66.390625 47.359375 66.4296875 C46.43511719 66.45804687 45.51085937 66.48640625 44.55859375 66.515625 C38.13590128 65.49008006 33.97107796 60.60374064 29.796875 55.9921875 C29.31863281 55.48236328 28.84039063 54.97253906 28.34765625 54.44726562 C23.58821193 49.25457373 19.89271091 43.85833688 15.671875 38.0546875 C15.341875 47.2946875 15.011875 56.5346875 14.671875 66.0546875 C3.22743056 66.0546875 3.22743056 66.0546875 -0.328125 63.0546875 C-3.2663143 58.64740354 -3.45313599 54.75366149 -3.45751953 49.54589844 C-3.46067169 48.46838318 -3.46382385 47.39086792 -3.46707153 46.28070068 C-3.4650473 45.12846008 -3.46302307 43.97621948 -3.4609375 42.7890625 C-3.46189423 41.59992249 -3.46285095 40.41078247 -3.46383667 39.18560791 C-3.46451625 36.677449 -3.46267743 34.16928832 -3.45849609 31.66113281 C-3.45312585 27.80529887 -3.4584583 23.94958041 -3.46484375 20.09375 C-3.4641833 17.65885391 -3.46290283 15.22395789 -3.4609375 12.7890625 C-3.46397385 11.04855621 -3.46397385 11.04855621 -3.46707153 9.27288818 C-3.46391937 8.20798157 -3.46076721 7.14307495 -3.45751953 6.04589844 C-3.45672394 5.10389587 -3.45592834 4.16189331 -3.45510864 3.19134521 C-3.27607184 0.17882828 -3.02715363 0.07110764 0 0 Z " fill="#353334" transform="translate(513.328125,219.9453125)"/>
<path d="M0 0 C1.60470036 0.13303508 3.20875658 0.27385554 4.8125 0.41796875 C6.15248047 0.53434692 6.15248047 0.53434692 7.51953125 0.65307617 C10.6457132 1.09031087 12.58787422 1.96476887 15 4 C17.44505873 7.63816533 17.26838464 11.06721417 17.30859375 15.36328125 C17.33376138 16.82226949 17.35915929 18.28125377 17.38476562 19.74023438 C17.41343002 22.02432151 17.4374657 24.30833977 17.45629883 26.5925293 C17.47810747 28.80814387 17.51756071 31.022951 17.55859375 33.23828125 C17.55870956 33.91143875 17.55882538 34.58459625 17.5589447 35.27815247 C17.65882991 40.12494188 18.64061606 43.76692119 21 48 C27.171907 52.28623939 27.171907 52.28623939 41 51 C41 34.17 41 17.34 41 0 C51 1 51 1 55 3 C59.09495053 8.55730915 58.38170667 14.80655209 58.29296875 21.3984375 C58.28872391 22.58853424 58.28447906 23.77863098 58.28010559 25.00479126 C58.26335169 28.79509375 58.22570416 32.58485898 58.1875 36.375 C58.17244897 38.94921106 58.1587613 41.52343047 58.14648438 44.09765625 C58.11345883 50.39861992 58.06329145 56.69927157 58 63 C43.00633955 68.14210271 26.77797306 69.21043805 12 63 C6.09650373 59.9255059 3.27123758 54.01742227 1 48 C-0.1475872 42.72584264 -0.12885974 37.59350237 -0.09765625 32.2265625 C-0.0962413 31.3028183 -0.09482635 30.3790741 -0.09336853 29.42733765 C-0.08779609 26.49319138 -0.07524869 23.55912299 -0.0625 20.625 C-0.05748144 18.62890736 -0.05291915 16.63281351 -0.04882812 14.63671875 C-0.03783569 9.75778275 -0.0205901 4.87890455 0 0 Z " fill="#363334" transform="translate(438,220)"/>
<path d="M0 0 C1.60470036 0.13303508 3.20875658 0.27385554 4.8125 0.41796875 C6.15248047 0.53434692 6.15248047 0.53434692 7.51953125 0.65307617 C10.6457132 1.09031087 12.58787422 1.96476887 15 4 C17.44505873 7.63816533 17.26838464 11.06721417 17.30859375 15.36328125 C17.33376138 16.82226949 17.35915929 18.28125377 17.38476562 19.74023438 C17.41343002 22.02432151 17.4374657 24.30833977 17.45629883 26.5925293 C17.47810747 28.80814387 17.51756071 31.022951 17.55859375 33.23828125 C17.55870956 33.91143875 17.55882538 34.58459625 17.5589447 35.27815247 C17.65882991 40.12494188 18.64061606 43.76692119 21 48 C27.171907 52.28623939 27.171907 52.28623939 41 51 C41 34.17 41 17.34 41 0 C51 1 51 1 55 3 C58.73526535 9.16400407 58.39011016 15.23081675 58.29296875 22.27734375 C58.28872391 23.4438295 58.28447906 24.61031525 58.28010559 25.81214905 C58.26337522 29.52083874 58.22573221 33.22897582 58.1875 36.9375 C58.17244593 39.4589765 58.15875879 41.98046156 58.14648438 44.50195312 C58.1134901 50.66815582 58.06334646 56.83403842 58 63 C44.28551073 67.70340867 27.71354056 69.62661649 14 64 C7.09982617 60.42606381 3.57467916 55.24888209 1 48 C-0.1401749 42.72264793 -0.12887099 37.59543703 -0.09765625 32.2265625 C-0.0962413 31.3028183 -0.09482635 30.3790741 -0.09336853 29.42733765 C-0.08779609 26.49319138 -0.07524869 23.55912299 -0.0625 20.625 C-0.05748144 18.62890736 -0.05291915 16.63281351 -0.04882812 14.63671875 C-0.03783569 9.75778275 -0.0205901 4.87890455 0 0 Z " fill="#363334" transform="translate(74,220)"/>
<path d="M0 0 C1.37600868 0.03363577 2.75113867 0.10361738 4.125 0.1875 C4.89070313 0.22230469 5.65640625 0.25710937 6.4453125 0.29296875 C11.48063328 1.68653612 14.66302634 5.11865346 17.2734375 9.46875 C17.99165207 10.80312676 18.69134831 12.14758961 19.375 13.5 C19.75293701 14.23412109 20.13087402 14.96824219 20.52026367 15.72460938 C27.84936478 30.35531027 36.77386583 49.23290702 36 66 C33.93867858 66.10864945 31.87568679 66.18588321 29.8125 66.25 C28.66394531 66.29640625 27.51539063 66.3428125 26.33203125 66.390625 C22.19258992 65.90534466 20.76892641 65.10837448 18 62 C16.82351111 59.30272021 16.16120838 56.54902448 15.5 53.6875 C15.09056187 52.07076958 14.67774061 50.45489256 14.26171875 48.83984375 C14.05595215 48.03015137 13.85018555 47.22045898 13.63818359 46.38623047 C12.676388 42.78998328 11.51549102 39.27170251 10.3125 35.75 C9.91675781 34.58984375 9.52101563 33.4296875 9.11328125 32.234375 C8.74589844 31.16703125 8.37851562 30.0996875 8 29 C7.33127959 27.00068575 6.66393754 25.00090764 6 23 C5.34 23 4.68 23 4 23 C1.71968184 29.76424653 -0.45911785 36.55370908 -2.5625 43.375 C-3.01786133 44.82132812 -3.01786133 44.82132812 -3.48242188 46.296875 C-5.48535665 52.80750396 -6.93360827 59.27277012 -8 66 C-9.91541138 66.10841951 -11.83259773 66.18578079 -13.75 66.25 C-14.81734375 66.29640625 -15.8846875 66.3428125 -16.984375 66.390625 C-20 66 -20 66 -22.390625 64.421875 C-24.62651161 61.05719126 -24.39750044 58.99174124 -24 55 C-23.44442669 52.38126753 -22.83757556 49.92438919 -22.0625 47.375 C-21.84505127 46.65207764 -21.62760254 45.92915527 -21.40356445 45.18432617 C-16.3964673 29.23760833 -9.27329472 13.90994208 0 0 Z " fill="#363334" transform="translate(395,220)"/>
</svg>
